<?xml version="1.0" encoding="UTF-8"?><svg id="Layer_2" xmlns="http://www.w3.org/2000/svg" xmlns:xlink="http://www.w3.org/1999/xlink" viewBox="0 0 327.8 50"><defs><style>.cls-1{fill:url(#_名称未設定グラデーション_84);}</style><linearGradient id="_名称未設定グラデーション_84" x1="327.8" y1="25" x2="0" y2="25" gradientUnits="userSpaceOnUse"><stop offset="0" stop-color="#f3951f"/><stop offset=".5" stop-color="#f15c39"/><stop offset="1" stop-color="#29358a"/></linearGradient></defs><g id="Layer_1-2"><path class="cls-1" d="M20.91,0l13.18,25-13.18,25h-6.82l13.18-25L14.09,0h6.82ZM0,0L13.18,25,0,50H6.82l13.18-25L6.82,0H0ZM56.05,0l13.18,25-13.18,25h6.82l13.18-25L62.87,0h-6.82Zm-14.09,0l13.18,25-13.18,25h6.82l13.18-25L48.78,0h-6.82Zm56.05,0l13.18,25-13.18,25h6.82l13.18-25L104.83,0h-6.82Zm-14.09,0l13.18,25-13.18,25h6.82l13.18-25L90.73,0h-6.82Zm56.05,0l13.18,25-13.18,25h6.82l13.18-25L146.78,0h-6.82Zm-14.09,0l13.18,25-13.18,25h6.82l13.18-25L132.69,0h-6.82Zm56.05,0l13.18,25-13.18,25h6.82l13.18-25L188.74,0h-6.82Zm-14.09,0l13.18,25-13.18,25h6.82l13.18-25L174.65,0h-6.82Zm56.05,0l13.18,25-13.18,25h6.82l13.18-25L230.7,0h-6.82Zm-14.09,0l13.18,25-13.18,25h6.82l13.18-25L216.61,0h-6.82Zm56.05,0l13.18,25-13.18,25h6.82l13.18-25L272.66,0h-6.82Zm-14.09,0l13.18,25-13.18,25h6.82l13.18-25L258.57,0h-6.82Zm56.05,0l13.18,25-13.18,25h6.82l13.18-25L314.62,0h-6.82Zm-14.09,0l13.18,25-13.18,25h6.82l13.18-25L300.52,0h-6.82Z"/></g></svg>