<?xml version="1.0" encoding="UTF-8"?><svg id="Layer_2" xmlns="http://www.w3.org/2000/svg" viewBox="0 0 64 64"><defs><style>.cls-1{fill:#fcec00;}.cls-2{fill:#2a317f;}</style></defs><g id="Layer_1-2"><g><polygon class="cls-1" points="32 3.6 36.21 0 39.35 4.56 44.35 2.18 46.2 7.4 51.65 6.39 52.08 11.92 57.61 12.35 56.6 17.8 61.82 19.65 59.44 24.65 64 27.79 60.4 32 64 36.21 59.44 39.35 61.82 44.35 56.6 46.2 57.61 51.65 52.08 52.08 51.65 57.61 46.2 56.6 44.35 61.82 39.35 59.44 36.21 64 32 60.4 27.79 64 24.65 59.44 19.65 61.82 17.8 56.6 12.35 57.61 11.92 52.08 6.39 51.65 7.4 46.2 2.18 44.35 4.56 39.35 0 36.21 3.6 32 0 27.79 4.56 24.65 2.18 19.65 7.4 17.8 6.39 12.35 11.92 11.92 12.35 6.39 17.8 7.4 19.65 2.18 24.65 4.56 27.79 0 32 3.6"/><g><path class="cls-2" d="M45.78,23.23c-.05,.09-.11,.18-.19,.26-.31,.29-6.15,5.81-9.23,8.69l9.23,8.68s.07,.07,.1,.12c.12-.24,.19-.52,.19-.81V23.83c0-.21-.04-.41-.1-.59Z"/><path class="cls-2" d="M18.15,23.48c-.02,.11-.03,.23-.03,.35v16.35c0,.12,.01,.24,.03,.35l9.4-8.35c-3.08-2.84-8.81-8.15-9.4-8.7Z"/><path class="cls-2" d="M30.52,32.42c1.09,.98,1.82,.98,2.91,0,1.23-1.1,10.82-10.17,10.92-10.26,.05-.04,.1-.08,.15-.11-.14-.03-.28-.05-.43-.05H19.94c-.21,0-.4,.04-.59,.1,.32,.29,9.69,8.99,11.16,10.32Z"/><path class="cls-2" d="M35.03,33.43c-.16,.15-.3,.27-.38,.35-.89,.79-1.78,1.19-2.67,1.19s-1.79-.4-2.68-1.2c-.1-.09-.23-.21-.39-.36l-9.55,8.48c.19,.06,.38,.1,.59,.1h24.12s.05,0,.07,0l-9.1-8.56Z"/></g></g></g></svg>