<?xml version="1.0" encoding="UTF-8"?><svg id="Layer_2" xmlns="http://www.w3.org/2000/svg" viewBox="0 0 78.17 78.17"><defs><style>.cls-1{fill:#fff;}.cls-2{fill:#f78c1e;}</style></defs><g id="Layer_1-2"><g><path class="cls-2" d="M39.08,78.17C17.53,78.17,0,60.64,0,39.08S17.53,0,39.08,0s39.08,17.53,39.08,39.08-17.53,39.08-39.08,39.08Z"/><g><path class="cls-1" d="M59.28,26.24c-.07,.14-.16,.27-.28,.38-.46,.43-9.01,8.52-13.52,12.74l13.52,12.72c.06,.05,.1,.11,.15,.17,.18-.36,.28-.76,.28-1.18V27.11c0-.3-.05-.59-.15-.87Z"/><path class="cls-1" d="M18.79,26.59c-.03,.17-.05,.34-.05,.51v23.96c0,.18,.02,.35,.05,.52l13.77-12.24c-4.51-4.16-12.9-11.94-13.77-12.75Z"/><path class="cls-1" d="M36.91,39.7c1.59,1.44,2.67,1.44,4.26,.01,1.8-1.62,15.85-14.9,16-15.03,.07-.06,.14-.12,.22-.17-.2-.05-.41-.08-.63-.08H21.41c-.3,0-.59,.05-.86,.15,.46,.43,14.2,13.17,16.36,15.12Z"/><path class="cls-1" d="M43.52,41.18c-.24,.22-.43,.4-.56,.52-1.3,1.16-2.61,1.75-3.91,1.75s-2.63-.59-3.93-1.77c-.14-.13-.34-.31-.57-.52l-13.99,12.43c.27,.09,.56,.15,.86,.15H56.76s.07,0,.1,0l-13.34-12.55Z"/></g></g></g></svg>