<?xml version="1.0" encoding="UTF-8"?><svg id="Layer_2" xmlns="http://www.w3.org/2000/svg" xmlns:xlink="http://www.w3.org/1999/xlink" viewBox="0 0 93.36 64"><defs><style>.cls-1{fill:url(#_名称未設定グラデーション_36);}</style><linearGradient id="_名称未設定グラデーション_36" x1="93.36" y1="32" x2="0" y2="32" gradientUnits="userSpaceOnUse"><stop offset="0" stop-color="#d61f26"/><stop offset="1" stop-color="#f47b20"/></linearGradient></defs><g id="Layer_1-2"><path class="cls-1" d="M93.17,20.36c-.34-9.89-8.58-18.78-17.72-19.45C65.84,.3,56.26,0,46.68,0c-9.58,0-19.16,.3-28.78,.91C8.77,1.58,.53,10.47,.19,20.36,.06,24.24,0,28.12,0,32c0,3.88,.06,7.76,.19,11.64,.34,9.89,8.58,18.78,17.72,19.45,9.62,.61,19.2,.91,28.78,.91,9.58,0,19.16-.3,28.78-.91,9.13-.67,17.37-9.55,17.72-19.45,.13-3.88,.19-7.76,.19-11.64,0-3.88-.06-7.76-.19-11.64Zm-33.72,13.48l-19.52,11.27c-1.41,.82-3.18-.2-3.18-1.84V20.73c0-1.63,1.77-2.65,3.18-1.84l19.52,11.27c1.41,.82,1.41,2.86,0,3.67Z"/></g></svg>