<?xml version="1.0" encoding="UTF-8"?><svg id="Layer_2" xmlns="http://www.w3.org/2000/svg" viewBox="0 0 42.76 5"><defs><style>.cls-1{fill:#1a1915;}.cls-2{fill:#ff6e32;}</style></defs><g id="design"><g><g><path class="cls-1" d="M12.5,.82c-.02,.06-.05,.12-.08,.18-.02,.03-.02,.04-.04,.04-.01,0-.02,0-.05-.03-.03-.02-.08-.05-.13-.07,.1-.16,.15-.31,.19-.48,0-.04,.02-.09,.02-.14,.07,0,.14,.02,.19,.04,.02,0,.04,.01,.04,.03,0,.01,0,.02-.02,.04-.01,.02-.02,.04-.03,.08,0,.03-.02,.06-.02,.1h.16v-.07c0-.16,0-.22-.02-.33,.08,0,.15,0,.23,.02,.02,0,.04,.01,.04,.02,0,.02,0,.03-.01,.05-.01,.03-.02,.07-.02,.23v.08h.16c.19,0,.26,0,.27,0,.02,0,.02,0,.02,.03v.16s0,.02-.02,.02c-.01,0-.08,0-.27,0h-.16v.29h.23c.21,0,.29,0,.3,0,.02,0,.02,0,.02,.02v.16s0,.03-.02,.03c-.01,0-.09,0-.3,0h-.16c.14,.23,.33,.41,.54,.56-.03,.04-.07,.09-.09,.16-.01,.03-.02,.05-.04,.05-.01,0-.02,0-.05-.03-.17-.15-.33-.34-.44-.55,0,.36,.01,.7,.01,.74,0,.02,0,.02-.02,.02h-.18s-.02,0-.02-.02c0-.05,0-.38,.01-.73-.13,.24-.28,.4-.47,.55-.02,.02-.04,.03-.05,.03-.01,0-.02-.02-.04-.05-.03-.06-.06-.1-.1-.13,.21-.14,.41-.32,.57-.6h-.07c-.22,0-.29,0-.3,0s-.02,0-.02,0c-.02,.04-.04,.09-.06,.12-.01,.02-.02,.04-.03,.04,0,0-.02-.01-.03-.04-.05-.09-.09-.19-.13-.29,0,.59,.02,1.07,.02,1.11,0,.02,0,.02-.02,.02h-.18s-.03,0-.03-.02c0-.04,.01-.49,.02-1.02-.05,.19-.13,.36-.23,.52-.01,.02-.02,.04-.03,.04-.01,0-.02-.01-.03-.04-.02-.07-.05-.13-.08-.17,.15-.19,.26-.43,.34-.72h-.05c-.15,0-.2,0-.21,0-.02,0-.02,0-.02-.02v-.16s0-.02,.02-.02c.01,0,.06,0,.21,0h.07v-.14c0-.14,0-.21-.02-.31,.09,0,.16,0,.22,.02,.02,0,.04,.01,.04,.02,0,.02,0,.03-.01,.05-.01,.03-.02,.06-.02,.22v.14c.13,0,.17,0,.18,0,.02,0,.02,0,.02,.02v.16s0,.02-.02,.02c-.01,0-.05,0-.17,0,.06,.14,.13,.26,.22,.37v-.09s0-.02,.02-.02c.01,0,.09,0,.3,0h.15v-.29h-.23Z"/><path class="cls-1" d="M14.19,.86c-.2,0-.27,0-.29,0-.02,0-.02,0-.02-.03v-.18s0-.03,.02-.03c.01,0,.08,0,.29,0h.81s0-.06,0-.09c0-.15,0-.22-.02-.32,.08,0,.17,0,.25,.01,.02,0,.04,.01,.04,.03,0,.02,0,.03-.01,.05-.01,.03-.01,.08-.01,.23v.1h.28c.2,0,.27,0,.29,0,.02,0,.02,0,.02,.03v.18s0,.03-.02,.03c-.01,0-.08,0-.29,0h-.27c.02,.29,.05,.55,.13,.77,.07,.2,.13,.33,.2,.33,.06,0,.09-.12,.1-.33,.03,.03,.1,.07,.15,.1q.07,.04,.06,.11c-.05,.29-.14,.41-.27,.41-.17,0-.33-.16-.44-.5-.09-.25-.13-.56-.16-.89h-.82Zm.36,.5v.44c.15-.04,.3-.08,.44-.13,0,.04,0,.1,0,.14q0,.07-.07,.09c-.23,.07-.56,.17-.81,.22-.06,.01-.08,.02-.09,.03-.02,0-.03,.02-.04,.02s-.02,0-.03-.03c-.02-.05-.04-.15-.06-.23,.08,0,.14-.01,.22-.03l.22-.04v-.5h-.08c-.19,0-.25,0-.27,0-.02,0-.02,0-.02-.02v-.17s0-.03,.02-.03c.01,0,.08,0,.27,0h.4c.19,0,.25,0,.27,0,.02,0,.03,0,.03,.03v.17s0,.02-.03,.02c-.01,0-.08,0-.27,0h-.09Zm.91-1.1s.02-.01,.03-.01,.01,0,.02,.01c.07,.06,.14,.13,.19,.21,.01,.02,.01,.03-.02,.05l-.11,.07s-.02,.01-.03,.01-.01,0-.02-.02c-.05-.08-.12-.16-.18-.21-.02-.02-.01-.02,0-.04l.09-.07Z"/><path class="cls-1" d="M12.05,3.38c-.13,.09-.26,.17-.41,.24-.03,.01-.04,.02-.05,.02-.02,0-.02-.02-.04-.06-.03-.06-.06-.11-.1-.15,.39-.16,.68-.39,.86-.65,.04-.06,.06-.09,.08-.15,.09,.01,.17,.03,.24,.05,.03,0,.04,.02,.04,.03,0,.01,0,.03-.02,.04-.01,0-.02,.01-.03,.02,.25,.31,.56,.51,.95,.64-.04,.05-.07,.11-.1,.17-.02,.04-.02,.06-.04,.06-.01,0-.03,0-.05-.02-.15-.07-.3-.15-.43-.24v.17s0,.02-.02,.02c-.01,0-.07,0-.25,0h-.35c-.18,0-.24,0-.25,0-.02,0-.02,0-.02-.02v-.17Zm-.14,.61c-.21,0-.28,0-.3,0-.02,0-.03,0-.03-.02v-.17s0-.02,.03-.02c.01,0,.09,0,.3,0h1.2c.21,0,.28,0,.3,0,.02,0,.03,0,.03,.02v.17s0,.02-.03,.02c-.01,0-.09,0-.3,0h-.7c-.06,.14-.12,.28-.2,.42,.23-.01,.48-.03,.69-.06-.05-.06-.1-.13-.16-.19-.02-.02-.01-.03,.01-.04l.14-.07s.03-.01,.05,0c.15,.16,.28,.32,.42,.52,.01,.02,.01,.03-.01,.04l-.16,.1s-.02,.01-.03,.01-.01,0-.02-.02c-.04-.06-.08-.12-.11-.18-.37,.05-.83,.09-1.22,.11-.04,0-.07,.01-.08,.02-.01,0-.02,.01-.04,.01s-.03-.01-.03-.03c-.02-.07-.03-.15-.05-.23,.08,0,.16,0,.25,0,.02,0,.05,0,.07,0,.08-.15,.15-.3,.2-.44h-.23Zm.77-.63c.15,0,.22,0,.24,0-.16-.12-.3-.25-.43-.41-.12,.16-.26,.29-.41,.41,.02,0,.08,0,.25,0h.35Z"/><path class="cls-1" d="M14.16,3.9c-.07,.07-.14,.13-.21,.19-.02,.02-.04,.03-.05,.03-.01,0-.02-.02-.04-.05-.02-.06-.05-.12-.08-.16,.26-.17,.47-.41,.59-.67h-.25c-.17,0-.22,0-.24,0-.02,0-.02,0-.02-.02v-.17s0-.02,.02-.02c.01,0,.07,0,.24,0h.04v-.09c0-.12,0-.19-.02-.27,.09,0,.15,0,.23,.02,.02,0,.04,.01,.04,.02,0,.02,0,.03-.01,.05-.01,.03-.01,.07-.01,.18v.1h.09s.03,0,.04,0c0,0,.02,0,.02,0,.01,0,.04,.01,.08,.06,.04,.04,.06,.07,.06,.08,0,.01,0,.02-.02,.04-.02,.02-.03,.03-.05,.07-.05,.11-.12,.23-.19,.33,.09,.1,.19,.18,.33,.26-.03,.04-.07,.09-.09,.15-.02,.03-.03,.05-.04,.05-.01,0-.02,0-.05-.03-.07-.07-.14-.14-.19-.21v.63c0,.17,0,.25,0,.27,0,.02,0,.02-.03,.02h-.18s-.03,0-.03-.02c0-.01,0-.1,0-.27v-.54Zm.75,.74c-.21,0-.29,0-.3,0-.02,0-.02,0-.02-.02v-.18s0-.02,.02-.02c.01,0,.09,0,.3,0h.19v-.84h-.1c-.2,0-.27,0-.28,0-.02,0-.02,0-.02-.02v-.18s0-.02,.02-.02c.01,0,.08,0,.28,0h.1v-.36c0-.16,0-.24-.02-.34,.09,0,.17,0,.25,.02,.02,0,.04,.01,.04,.02,0,.02,0,.03-.01,.05-.01,.03-.02,.08-.02,.25v.36h.14c.2,0,.27,0,.28,0,.02,0,.02,0,.02,.02v.18s0,.02-.02,.02c-.01,0-.08,0-.28,0h-.14v.84h.2c.21,0,.29,0,.3,0,.02,0,.03,0,.03,.02v.18s0,.02-.03,.02c-.01,0-.09,0-.3,0h-.63Z"/></g><g><polygon class="cls-2" points="1.98 5 2.88 5 1.98 2.58 1.98 5"/><polygon class="cls-2" points="4.54 5 4.54 2.58 3.65 5 4.54 5"/><path class="cls-2" d="M9.53,0H.79C.35,0,0,.35,0,.79v3.43c0,.43,.35,.79,.79,.79h.23V.84h1.27l.98,2.76,.98-2.76h1.27V5h1.67V1.88h-1.27V.84h3.68V1.88h-1.27v3.12h1.21c.43,0,.79-.35,.79-.79V.79c0-.43-.35-.79-.79-.79Z"/></g><path class="cls-1" d="M19.29,3.49s1.38-1.6,1.79-2.16-.08-.91-.25-.91h-3.51c-.15,0-.26,.12-.26,.26v.18c0,.15,.12,.26,.26,.26h3.19c.15,0,.28,.08,.06,.34s-1.53,1.81-1.53,1.81l.25,.21Z"/><path class="cls-1" d="M24.87,1.29h1.47c.15,0,.26-.12,.26-.26v-.18c0-.15-.12-.26-.26-.26h-1.47s-1.76,0-1.76,0c-.15,0-.26,.12-.26,.26v.18c0,.15,.12,.26,.26,.26h1.76Z"/><path class="cls-1" d="M30.13,2.39h2.01c.15,0,.26-.12,.26-.26v-.18c0-.15-.12-.26-.26-.26h-2.01s-1.76,0-1.76,0c-.15,0-.26,.12-.26,.26v.18c0,.15,.12,.26,.26,.26h1.76Z"/><path class="cls-1" d="M30.55,1.07h1.15c.15,0,.26-.12,.26-.26v-.18c0-.15-.12-.26-.26-.26h-1.15s-1.76,0-1.76,0c-.15,0-.26,.12-.26,.26v.18c0,.15,.12,.26,.26,.26h1.76Z"/><path class="cls-1" d="M24.87,4.28h1.79c.15,0,.26-.12,.26-.26v-.18c0-.15-.12-.26-.26-.26h-1.79s-2.08,0-2.08,0c-.15,0-.26,.12-.26,.26v.18c0,.15,.12,.26,.26,.26h2.08Z"/><path class="cls-1" d="M17.85,2.25v-.02c.12-.11,.29-.13,.42-.04,.37,.27,1.15,.87,1.9,1.65,.11,.12,.11,.31,0,.43-.02,.02-.04,.04-.07,.07-.12,.12-.32,.12-.43,0-.34-.35-1.1-1.07-1.82-1.64-.14-.11-.11-.32,0-.45Z"/><rect class="cls-1" x="24.62" y="1.21" width=".21" height="2.5"/><path class="cls-1" d="M28.85,4.43c1.78-.34,1.65-2.19,1.65-2.19h-.25c-.07,.78-.63,1.23-1.19,1.39s-.65,.1-.67,.29,.07,.58,.46,.5Z"/><path class="cls-1" d="M34.53,4.5c.74-.1,2.48-.78,2.48-2.83,0-.1,.02-.56-.1-.56s-.11,.23-.11,.52c0,1.52-1.7,2.08-2.24,2.18-.43,.08-.51,.06-.47,.26s.04,.48,.43,.43Z"/><path class="cls-1" d="M34.44,2.65h0c-.07,0-.14-.05-.16-.12l-.37-1.14c-.04-.11,.05-.22,.16-.22h0c.07,0,.14,.05,.16,.12l.37,1.14c.04,.11-.05,.22-.16,.22Z"/><path class="cls-1" d="M35.45,2.46h0c-.07,0-.14-.05-.16-.12l-.37-1.14c-.04-.11,.05-.22,.16-.22h0c.07,0,.14,.05,.16,.12l.37,1.14c.04,.11-.05,.22-.16,.22Z"/><path class="cls-1" d="M39.7,4.49c1.05-.09,3.06-1.44,3.06-3.49,0-.08-.08-.22-.26-.24s-1.64-.18-1.64-.18c.12-.21,.16-.33,.11-.38-.02-.02-.15-.08-.21,.03-.05,.09-.12,.23-.54,.7-.53,.59-1.1,.74-1.33,.89-.23,.15-.13,.36-.03,.47,.03,.03,.19,.23,.42,.1,.32-.18,.93-.79,1.14-1.11,.03-.04,.05-.08,.08-.11l1.93,.2c-.1,1.45-2.05,2.32-2.58,2.38-.3,.04-.47,.06-.45,.2s.07,.56,.32,.54Z"/></g></g></svg>