<?xml version="1.0" encoding="UTF-8"?><svg id="Layer_2" xmlns="http://www.w3.org/2000/svg" viewBox="0 0 248.89 79.25"><defs><style>.cls-1{fill:none;stroke:#fff;stroke-miterlimit:10;stroke-width:1.6px;}.cls-2{fill:#33a949;}.cls-3,.cls-4{fill:#2b9045;}.cls-4{fill-rule:evenodd;}.cls-5{fill:#d7de23;}.cls-6{fill:#ef9721;}</style></defs><g id="Layer_1-2"><g><path class="cls-3" d="M0,10.51c.75-.44,1.49-.8,2.23-1.08-.21-1.44-.37-2.58-.48-3.43-.12-.85-.18-1.28-.18-1.32h3.69c.05,.64,.11,1.28,.19,1.9,.08,.63,.16,1.24,.23,1.85,.39-.08,.76-.15,1.12-.22,.35-.07,.74-.13,1.16-.18-.12-1.06-.3-1.91-.52-2.52-.22-.62-.34-.93-.37-.95h3.4c.16,.56,.31,1.16,.47,1.78,.16,.63,.26,1.21,.31,1.76,1.81,.2,3.17,.78,4.07,1.73,.9,.95,1.37,2.17,1.4,3.67-.02,1.21-.25,2.2-.72,2.98-.46,.78-1.11,1.38-1.94,1.78-.83,.41-1.7,.65-2.62,.72-.92,.07-1.83,0-2.73-.22v-3.47c1.66,.31,2.82,.34,3.49,.09,.67-.25,.98-.89,.95-1.93-.02-.36-.16-.69-.45-.99-.28-.3-.72-.53-1.32-.69-.59-.16-1.46-.25-2.61-.25-.37,0-.79,.04-1.24,.12-.45,.08-.9,.2-1.34,.35,.45,2.39,.92,4.51,1.41,6.33,.48,1.82,.91,3.26,1.27,4.3,.36,1.04,.55,1.58,.56,1.61h-3.99c-.55-1.82-1.04-3.68-1.47-5.6-.43-1.92-.81-3.77-1.14-5.55-.74,.38-1.68,.84-2.84,1.38v-3.97Z"/><path class="cls-3" d="M22.06,11.29h6.08v-1.32h-6.5v-3.26h6.5v-2.02h3.41v2.02h4.95v3.26h-4.95v1.32h4.55v3.19h-4.55v1.71c.69,.25,1.39,.59,2.11,1.01,.72,.42,1.31,.8,1.76,1.14,.45,.34,.69,.52,.7,.55v4.04s-.25-.22-.7-.62c-.45-.4-1.03-.87-1.71-1.41-.69-.54-1.41-1.02-2.16-1.45v.73c-.02,1.22-.28,2.13-.79,2.71-.51,.59-1.1,.97-1.78,1.14-.68,.17-1.39,.25-2.13,.24-.92,0-1.78-.16-2.58-.47-.8-.31-1.42-.78-1.87-1.39-.45-.61-.69-1.36-.72-2.25,0-1.08,.29-1.94,.87-2.58,.58-.64,1.38-1.11,2.41-1.4s2.09-.44,3.18-.46v-1.24h-6.08v-3.19Zm4.79,9.91c.33,0,.62-.09,.87-.27,.25-.18,.39-.44,.42-.79v-1.48c-.98-.12-1.77-.03-2.37,.27-.6,.3-.9,.63-.92,.97,0,.36,.13,.67,.39,.92s.79,.37,1.61,.37"/><path class="cls-3" d="M50.64,5.09h5.8c-1.27,1.02-2.37,1.9-3.32,2.65-.95,.75-1.91,1.51-2.89,2.29-.98,.77-1.82,1.46-2.53,2.05-.71,.6-1.16,.99-1.33,1.17-.16,.14-.23,.32-.23,.54s.1,.45,.31,.68c.19,.19,.64,.62,1.35,1.28,.71,.67,1.55,1.45,2.52,2.34,.97,.89,1.93,1.77,2.88,2.64,.95,.87,2.05,1.87,3.32,3.02h-5.45c-.94-.83-1.76-1.56-2.46-2.18-.7-.63-1.43-1.27-2.17-1.93-.74-.66-1.41-1.26-2.01-1.8-.6-.54-1-.94-1.22-1.21-.78-.85-1.16-1.77-1.14-2.78,.02-1.01,.39-1.87,1.12-2.59,.25-.24,.66-.59,1.23-1.07,.57-.48,1.21-1,1.91-1.58,.7-.58,1.38-1.14,2.03-1.68,.65-.54,1.41-1.16,2.29-1.84m2.09,4.13h1.62v3.38h-1.62v-3.38Zm2.54,0h1.62v3.38h-1.62v-3.38Z"/><path class="cls-3" d="M61.38,10.84v-3.59h4.84c.31-.75,.54-1.34,.68-1.76,.14-.42,.21-.64,.21-.66h3.83c-.14,.42-.28,.83-.41,1.23-.13,.4-.28,.79-.44,1.19h6.69v3.59h-7.96c-.2,.47-.63,1.28-1.29,2.42,.41-.14,.83-.27,1.26-.37,.43-.11,.85-.19,1.26-.24,1.93-.13,3.48,.27,4.66,1.17,1.18,.91,1.8,2.25,1.84,4.04,.02,1.45-.4,2.74-1.26,3.86-.85,1.12-2.3,1.82-4.33,2.09-2.03,.27-4.48,.18-7.33-.27v-3.64c1.99,.34,3.62,.52,4.88,.54,1.27,.02,2.22-.1,2.85-.34,.63-.24,1.08-.56,1.34-.95,.26-.39,.38-.83,.36-1.31,.02-.64-.23-1.14-.74-1.5-.51-.36-1.37-.49-2.57-.4-1.16,.11-2.26,.4-3.3,.87-1.04,.47-2.24,1.15-3.6,2.04v-3.57c1.14-2.25,1.86-3.73,2.16-4.44h-3.64Z"/><path class="cls-3" d="M13.21,58.12v17.7H2.25V27.85h14.43c7.31,0,12.61,1.13,15.9,3.4,3.29,2.27,4.94,5.69,4.94,10.26,0,2.91-.87,5.55-2.6,7.92-1.73,2.37-3.99,4.03-6.77,4.97v.13c2.31,1.28,4.17,3.89,5.58,7.83l5.07,13.47h-11.48l-4.55-13.02c-.6-1.84-1.34-3.08-2.21-3.72-.88-.64-2.23-.96-4.07-.96h-3.27Zm4.1-21.74h-4.1v13.53h3.66c3.08,0,5.43-.64,7.05-1.92,1.63-1.28,2.44-3.06,2.44-5.32s-.7-3.77-2.08-4.78c-1.39-1-3.71-1.51-6.96-1.51"/><polygon class="cls-3" points="57.33 36.89 57.33 46.64 75.48 46.64 75.48 55.1 57.33 55.1 57.33 66.84 76.76 66.84 76.76 75.81 46.18 75.81 46.18 27.85 76.76 27.85 76.76 36.89 57.33 36.89"/><path class="cls-3" d="M138.22,40.05c0,1.95-1.58,3.53-3.53,3.53s-3.53-1.58-3.53-3.53,1.58-3.53,3.53-3.53,3.53,1.58,3.53,3.53"/><path class="cls-3" d="M153.74,40.05c0,1.95-1.58,3.53-3.53,3.53s-3.53-1.58-3.53-3.53,1.58-3.53,3.53-3.53,3.53,1.58,3.53,3.53"/><path class="cls-3" d="M142.45,58.49c-6.95,0-12.66-4.21-12.9-4.39-.69-.51-.83-1.49-.31-2.18,.51-.69,1.49-.83,2.18-.32,.05,.04,5.14,3.77,11.03,3.77s10.98-3.73,11.03-3.77c.69-.51,1.66-.37,2.18,.32,.51,.69,.37,1.66-.31,2.18-.24,.18-5.94,4.39-12.9,4.39"/><path class="cls-3" d="M171.54,28.2c-4.85-8.4-12.8-13.9-21.58-15.92V6.96l-7.78,7.78,7.78,7.79v-3.85c6.61,1.88,12.54,6.19,16.24,12.6,4.42,7.65,4.71,16.56,1.58,24.16l5.38,3.1c4.17-9.47,3.94-20.73-1.62-30.35"/><path class="cls-5" d="M125.66,15.91c-13.8,7.97-19.78,24.31-15.28,38.94l-4.48,2.58,10.63,2.85,2.85-10.63-3.49,2.02c-2.9-11.58,2.01-24.16,12.85-30.42,3.21-1.85,6.64-2.98,10.1-3.43v-6.2c-4.52,.48-9.01,1.88-13.18,4.3"/><path class="cls-2" d="M172.41,69.03l-2.85-10.63-10.63,2.85,3.79,2.19c-1.86,2.04-4.04,3.85-6.56,5.3-12.03,6.95-27.19,3.7-35.44-7.03l-5.38,3.11c9.98,13.67,28.92,17.91,43.9,9.27,3.49-2.01,6.44-4.59,8.89-7.51l4.27,2.47Z"/><path class="cls-3" d="M215.22,11.14c-12.68,0-23.74,7.05-29.49,17.44-.03,.04-.05,.09-.08,.13-.03,.05-.05,.1-.08,.15-.02,.04-.04,.07-.06,.11-2.53,4.73-3.97,10.12-3.97,15.85s1.58,11.61,4.33,16.49c.06,.15,.14,.28,.23,.4,5.84,10.02,16.7,16.78,29.11,16.78s23.29-6.77,29.12-16.8c.05-.07,.08-.14,.12-.21,2.81-4.92,4.43-10.6,4.43-16.66,0-18.57-15.1-33.67-33.67-33.67m23.89,16.52h-6.15c-1.28-3.61-2.95-6.76-4.93-9.33,4.43,2.15,8.23,5.37,11.09,9.33m2.23,30.71h-7.28c.9-3.43,1.46-7.18,1.62-11.13h8.87c-.33,3.99-1.45,7.75-3.21,11.13m-55.45-11.13h8.87c.16,3.95,.72,7.7,1.62,11.13h-7.28c-1.76-3.38-2.88-7.14-3.21-11.13m2.91-15.36h7.42c-.85,3.45-1.37,7.19-1.49,11.14h-8.87c.24-3.98,1.27-7.74,2.94-11.14m28.53-4.22V15.65c4.47,1.1,8.43,5.62,11.02,12.01h-11.02Zm12.45,4.22c.96,3.42,1.55,7.18,1.68,11.14h-14.14v-11.14h12.45Zm-16.67-16.23v12.01h-11.02c2.59-6.39,6.55-10.91,11.02-12.01m0,16.23v11.14h-14.14c.14-3.96,.73-7.72,1.68-11.14h12.45Zm-14.12,15.36h14.12v11.13h-12.28c-1-3.4-1.65-7.17-1.84-11.13m14.12,15.35v11.39c-4.32-1.06-8.17-5.32-10.76-11.39h10.76Zm4.22,11.39v-11.39h10.76c-2.59,6.06-6.43,10.32-10.76,11.39m0-15.61v-11.13h14.12c-.19,3.97-.83,7.73-1.84,11.13h-12.28Zm18.38-15.35c-.12-3.95-.64-7.69-1.49-11.14h7.42c1.67,3.4,2.7,7.16,2.94,11.14h-8.87Zm-33.3-24.68c-1.98,2.56-3.65,5.72-4.93,9.33h-6.15c2.85-3.96,6.66-7.18,11.09-9.33m-10.62,44.25h5.91c1.25,3.35,2.84,6.29,4.71,8.7-4.19-2.04-7.82-5.03-10.62-8.7m36.23,8.7c1.87-2.42,3.46-5.36,4.71-8.7h5.91c-2.8,3.68-6.43,6.67-10.62,8.7"/><path class="cls-6" d="M215.05,63.5c.05,.03,.1,.04,.16,.04s.11,0,.16-.04c7.42-3.66,16.07-9.14,17.11-19.1,.34-3.25-.63-6.4-2.65-8.64-1.63-1.81-3.75-2.8-5.96-2.8-3.2,0-6.26,2.07-8.66,5.84-2.4-3.78-5.46-5.84-8.66-5.84-2.22,0-4.34,.99-5.96,2.8-2.02,2.25-2.98,5.39-2.65,8.64,1.05,9.95,9.69,15.44,17.11,19.1"/><path class="cls-1" d="M215.05,63.5c.05,.03,.1,.04,.16,.04s.11,0,.16-.04c7.42-3.66,16.07-9.14,17.11-19.1,.34-3.25-.63-6.4-2.65-8.64-1.63-1.81-3.75-2.8-5.96-2.8-3.2,0-6.26,2.07-8.66,5.84-2.4-3.78-5.46-5.84-8.66-5.84-2.22,0-4.34,.99-5.96,2.8-2.02,2.25-2.98,5.39-2.65,8.64,1.05,9.95,9.69,15.44,17.11,19.1Z"/><path class="cls-3" d="M215.37,6.97c-.69-2.25-2.43-4.82-5.3-6.07-2.86-1.24-7.31-1.5-8.11,1.18-.83,2.77,3.36,4.59,5.62,5.03,3.78,.73,6.78,.26,7.8-.14"/><path class="cls-3" d="M214.87,6.97c.69-2.25,2.43-4.82,5.3-6.07,2.86-1.24,7.31-1.5,8.11,1.18,.83,2.77-3.36,4.59-5.62,5.03-3.78,.73-6.78,.26-7.8-.14"/><path class="cls-3" d="M215.9,15.69h-1.55s.41,.85,.41-3.97-.41-4.94-.41-4.94h1.55s-.41,.69-.41,4.94,.41,3.97,.41,3.97"/><rect class="cls-5" x="86.33" y="3.49" width="12.66" height="74.2"/><path class="cls-4" d="M99,79.25c.59,0,1.07-.39,1.07-.87V4.18c0-.48-.48-.87-1.07-.87h-12.66c-.59,0-1.07,.39-1.07,.87V78.38c0,.48,.48,.87,1.07,.87h12.66Zm-1.07-71.63v-2.57h-10.53V77.51h10.53v-2.57h-6.59c-.59,0-1.07-.39-1.07-.87s.48-.87,1.07-.87h6.59v-2.62h-3.98c-.59,0-1.07-.39-1.07-.87s.48-.87,1.07-.87h3.98v-2.63h-3.98c-.59,0-1.07-.39-1.07-.87s.48-.87,1.07-.87h3.98v-2.63h-3.98c-.59,0-1.07-.39-1.07-.87s.48-.87,1.07-.87h3.98v-2.63h-3.98c-.59,0-1.07-.39-1.07-.87s.48-.87,1.07-.87h3.98v-2.63h-6.59c-.59,0-1.07-.39-1.07-.87s.48-.87,1.07-.87h6.59v-2.63h-3.98c-.59,0-1.07-.39-1.07-.87s.48-.87,1.07-.87h3.98v-2.62h-3.98c-.59,0-1.07-.39-1.07-.87s.48-.87,1.07-.87h3.98v-2.63h-3.98c-.59,0-1.07-.39-1.07-.87s.48-.87,1.07-.87h3.98v-2.63h-3.98c-.59,0-1.07-.39-1.07-.87s.48-.87,1.07-.87h3.98v-2.63h-6.59c-.59,0-1.07-.39-1.07-.87s.48-.87,1.07-.87h6.59v-2.63h-3.98c-.59,0-1.07-.39-1.07-.87s.48-.87,1.07-.87h3.98v-2.63h-3.98c-.59,0-1.07-.39-1.07-.87s.48-.87,1.07-.87h3.98v-2.62h-3.98c-.59,0-1.07-.39-1.07-.87s.48-.87,1.07-.87h3.98v-2.63h-3.98c-.59,0-1.07-.39-1.07-.87s.48-.87,1.07-.87h3.98v-2.63h-6.59c-.59,0-1.07-.39-1.07-.87s.48-.87,1.07-.87h6.59Z"/></g></g></svg>